<svg id="Layer_2" data-name="Layer 2" xmlns="http://www.w3.org/2000/svg" viewBox="0 0 516.47 101.37"><defs><style>.cls-1,.cls-6{fill:#ff5000;}.cls-2,.cls-3,.cls-5{fill:#003056;}.cls-3,.cls-5{stroke:#003056;stroke-miterlimit:3.86;}.cls-3{stroke-width:1.02px;}.cls-3,.cls-4,.cls-6{fill-rule:evenodd;}.cls-4{fill:#fff;}</style></defs><title>2018 site logo</title><path class="cls-1" d="M127.39,15.44h37.73v7H135.67V43h24.85v7.09H135.67V73.83h30.44v7.09H127.39Z"/><path class="cls-1" d="M173.89,69.94c4.19,3.39,8.48,5.79,14.27,5.79,6.39,0,9.58-3.39,9.58-7.58,0-5-5.79-7.19-11.08-9.18-6.89-2.5-14.47-5.79-14.47-14,0-7.78,6.18-13.77,16.66-13.77a24.21,24.21,0,0,1,15.07,5.49L200,41.89c-3.29-2.5-6.79-4.29-11.08-4.29-6.09,0-8.88,3.29-8.88,7,0,4.59,5.29,6.29,10.78,8.38,7,2.6,14.77,5.49,14.77,14.67,0,7.89-6.28,14.47-17.76,14.47a29.18,29.18,0,0,1-18.06-6.68Z"/><path class="cls-1" d="M232.77,31.21A20,20,0,0,1,246.94,37l-4.09,5.29C240,39.8,237,38,233.07,38c-8.78,0-15.17,7.58-15.17,18.76s6.09,18.56,15,18.56c4.59,0,8.48-2.3,11.38-4.89l3.69,5.39a24,24,0,0,1-15.77,6.29c-12.87,0-22.75-9.28-22.75-25.35C209.42,40.5,220.29,31.21,232.77,31.21Z"/><path class="cls-1" d="M281,50.17C281,44,278.87,38,271,38c-5.69,0-10.68,2.59-14.47,5.19l-3.29-5.69c4.49-2.89,11.28-6.29,19.06-6.29,11.88,0,16.87,7.88,16.87,20V80.91h-6.79l-.7-5.79h-.2c-4.69,3.79-10.08,7-16.07,7-8.18,0-14.27-5.09-14.27-13.77C251.13,57.76,260.31,52.47,281,50.17ZM267.69,75.53c4.69,0,8.58-2.3,13.27-6.49V55.57c-16.27,2-21.76,6-21.76,12.17C259.21,73.23,262.91,75.53,267.69,75.53Z"/><path class="cls-1" d="M308.81,85v16.37h-8.19v-69h6.79l.7,5.59h.3c4.39-3.69,9.78-6.79,15.47-6.79C336.36,31.21,343,40.89,343,56c0,16.46-9.88,26.15-21,26.15-4.49,0-9-2.1-13.47-5.59Zm11.87-9.78c8,0,13.87-7.28,13.87-19.26,0-10.68-3.59-17.86-12.77-17.86-4.09,0-8.19,2.29-13,6.59V70.14C313.2,73.83,317.49,75.22,320.68,75.22Z"/><path class="cls-1" d="M370.18,31.21c12.38,0,19.37,8.88,19.37,22.75a29,29,0,0,1-.3,4.49H356.51c.6,10.48,6.88,17.07,16.17,17.07a21.92,21.92,0,0,0,12.07-3.79l2.9,5.39a28.9,28.9,0,0,1-16,5c-13,0-23.25-9.48-23.25-25.35S359.1,31.21,370.18,31.21Zm12.18,21.86c0-9.88-4.39-15.37-12-15.37-6.79,0-13,5.59-14,15.37Z"/><path class="cls-2" d="M397.52,32.41h6.79l.7,7h.29c4.59-4.59,9.58-8.18,16.27-8.18,10.18,0,14.77,6.59,14.77,19V80.91h-8.18V51.27c0-9.08-2.79-13-9.18-13-5,0-8.38,2.6-13.28,7.48V80.91h-8.18Z"/><path class="cls-2" d="M466.28,31.21c12.38,0,19.36,8.88,19.36,22.75a28.84,28.84,0,0,1-.3,4.49H452.61c.59,10.48,6.88,17.07,16.17,17.07a21.92,21.92,0,0,0,12.07-3.79l2.9,5.39a28.9,28.9,0,0,1-16,5c-13,0-23.25-9.48-23.25-25.35S455.2,31.21,466.28,31.21Zm12.18,21.86c0-9.88-4.39-15.37-12-15.37-6.78,0-13,5.59-14,15.37Z"/><path class="cls-2" d="M493.63,39.1h-7.19V32.91l7.59-.5,1-13.57h6.88V32.41H515V39.1H501.91V66c0,6,1.9,9.38,7.48,9.38a17.65,17.65,0,0,0,5.49-1.3l1.6,6.19a29.93,29.93,0,0,1-9,1.79c-10.38,0-13.87-6.58-13.87-16.17Z"/><path class="cls-3" d="M93.81,76.71A17.12,17.12,0,0,1,76.69,93.82H17.62A17.12,17.12,0,0,1,.51,76.69V17.63A17.12,17.12,0,0,1,17.64.51L76.7.52A17.11,17.11,0,0,1,93.82,17.64Z"/><path class="cls-4" d="M83.17,28.45c0-.3,0-.67,0-1,0-6.81-.41-11.41,1.88-16.27,1.23-2.61,2.42-3.7,3.77-5.74-2,1.36-3.13,2.58-5.74,3.81-4.85,2.29-9.39,2-16.19,2-.27,0-.57,0-.84,0H28.45l-1,0c-6.81,0-11.41.4-16.27-1.88C8.61,8.21,7.52,7,5.48,5.67c1.36,2,2.58,3.13,3.82,5.74,2.29,4.85,2,9.39,2,16.2,0,.26,0,.57,0,.84V66c0,.29,0,.67,0,1,0,6.81.4,11.41-1.89,16.26C8.21,85.86,7,86.95,5.67,89c2-1.35,3.12-2.58,5.74-3.81,4.85-2.29,9.39-2,16.19-2,.27,0,.57,0,.84,0H66l1,0c6.81,0,11.41-.4,16.27,1.89,2.61,1.23,3.7,2.41,5.74,3.77-1.35-2-2.58-3.13-3.81-5.74-2.29-4.85-2-9.39-2-16.19,0-.27,0-.57,0-.84Z"/><path class="cls-5" d="M30.13,13H64.39A17.14,17.14,0,0,1,81.53,30.12V64.37A17.14,17.14,0,0,1,64.39,81.52H30.13A17.14,17.14,0,0,1,13,64.37V30.12A17.14,17.14,0,0,1,30.13,13Z"/><path class="cls-6" d="M62.75,46.22H36.83q0,6.31,3.46,9.7a10.84,10.84,0,0,0,7.85,3,13.42,13.42,0,0,0,9.13-3.19L60,60.28a12.06,12.06,0,0,1-4.53,2.55,24.57,24.57,0,0,1-8.52,1.41,15.91,15.91,0,0,1-11.51-4.6Q30.12,54.57,30.12,46q0-8.9,5.4-14.27A15.7,15.7,0,0,1,47,27Q54.65,27,59,31.28q4.23,4.16,4.23,11A14.33,14.33,0,0,1,62.75,46.22ZM47.27,32.32A10.09,10.09,0,0,0,37,41.58H56.91a9.09,9.09,0,0,0-2.42-6.45A9.44,9.44,0,0,0,47.27,32.32Z"/></svg>